<svg viewBox="0 0 240 240" xmlns="http://www.w3.org/2000/svg"><defs><filter id="ink54" x="-35%" y="-35%" width="170%" height="170%"><feTurbulence type="fractalNoise" baseFrequency="0.012 0.017" numOctaves="3" seed="54" result="w"/><feDisplacementMap in="SourceGraphic" in2="w" scale="15" xChannelSelector="R" yChannelSelector="G"/></filter><filter id="g54" x="-120%" y="-120%" width="340%" height="340%"><feGaussianBlur stdDeviation="5"/></filter></defs><ellipse cx="120" cy="210" rx="86" ry="8" fill="rgba(20,18,16,0.05)"/><g filter="url(#ink54)"><ellipse cx="74.0" cy="168.0" rx="44.0" ry="30.0" fill="#141210"/><ellipse cx="166.0" cy="168.0" rx="44.0" ry="30.0" fill="#141210"/><rect x="60.0" y="150.0" width="120.0" height="24.0" rx="0" fill="#141210"/><rect x="66.0" y="118.0" width="108.0" height="20.0" rx="3" fill="#141210"/><rect x="80.0" y="72.0" width="6.0" height="48.0" rx="0" fill="#141210"/><rect x="154.0" y="72.0" width="6.0" height="48.0" rx="0" fill="#141210"/><ellipse cx="83.0" cy="62.0" rx="21.0" ry="27.0" fill="#141210"/><ellipse cx="157.0" cy="62.0" rx="21.0" ry="27.0" fill="#141210"/><circle cx="30.0" cy="168.0" r="3.0" fill="#141210"/><circle cx="210.0" cy="168.0" r="2.5" fill="#141210"/></g><ellipse cx="74" cy="168" rx="29.7" ry="20.2" fill="#C96F2B" opacity="0.35" filter="url(#g54)"/><ellipse cx="74" cy="168" rx="22.0" ry="15.0" fill="#C96F2B"/><ellipse cx="74" cy="168" rx="9.2" ry="6.3" fill="#141210"/><ellipse cx="166" cy="168" rx="29.7" ry="20.2" fill="#C96F2B" opacity="0.35" filter="url(#g54)"/><ellipse cx="166" cy="168" rx="22.0" ry="15.0" fill="#C96F2B"/><ellipse cx="166" cy="168" rx="9.2" ry="6.3" fill="#141210"/><circle cx="83" cy="60" r="20.9" fill="#C96F2B" opacity="0.4" filter="url(#g54)"/><circle cx="83" cy="60" r="11.0" fill="#C96F2B"/><circle cx="83" cy="60" r="4.6" fill="#141210"/><circle cx="157" cy="60" r="20.9" fill="#C96F2B" opacity="0.4" filter="url(#g54)"/><circle cx="157" cy="60" r="11.0" fill="#C96F2B"/><circle cx="157" cy="60" r="4.6" fill="#141210"/><path d="M80.0 148.0 Q120.0 157.0 160.0 148.0" fill="none" stroke="#C96F2B" stroke-width="3" stroke-linecap="round"/></svg>