<svg viewBox="0 0 240 240" xmlns="http://www.w3.org/2000/svg"><defs><filter id="ink51" x="-35%" y="-35%" width="170%" height="170%"><feTurbulence type="fractalNoise" baseFrequency="0.012 0.017" numOctaves="3" seed="51" result="w"/><feDisplacementMap in="SourceGraphic" in2="w" scale="15" xChannelSelector="R" yChannelSelector="G"/></filter><filter id="g51" x="-120%" y="-120%" width="340%" height="340%"><feGaussianBlur stdDeviation="5"/></filter></defs><ellipse cx="120" cy="210" rx="52" ry="8" fill="rgba(20,18,16,0.05)"/><g filter="url(#ink51)"><path d="M183.8 121.1 L166.7 150.7 L137.1 167.8 L102.9 167.8 L73.3 150.7 L56.2 121.1 L56.2 86.9 L73.3 57.3 L102.9 40.2 L137.1 40.2 L166.7 57.3 L183.8 86.9 Z" fill="#141210"/><path d="M108.0 166.0 L84.0 208.0" stroke="#141210" stroke-width="4" stroke-linecap="round"/><path d="M132.0 166.0 L156.0 208.0" stroke="#141210" stroke-width="4" stroke-linecap="round"/><path d="M120.0 168.0 L120.0 210.0" stroke="#141210" stroke-width="4" stroke-linecap="round"/><circle cx="58.0" cy="90.0" r="3.0" fill="#141210"/><circle cx="182.0" cy="120.0" r="2.5" fill="#141210"/></g><path d="M183.8 121.1 L152.8 112.8" stroke="#141210" stroke-width="1" opacity="0.3"/><path d="M166.7 150.7 L144.0 128.0" stroke="#141210" stroke-width="1" opacity="0.3"/><path d="M137.1 167.8 L128.8 136.8" stroke="#141210" stroke-width="1" opacity="0.3"/><path d="M102.9 167.8 L111.2 136.8" stroke="#141210" stroke-width="1" opacity="0.3"/><path d="M73.3 150.7 L96.0 128.0" stroke="#141210" stroke-width="1" opacity="0.3"/><path d="M56.2 121.1 L87.2 112.8" stroke="#141210" stroke-width="1" opacity="0.3"/><path d="M56.2 86.9 L87.2 95.2" stroke="#141210" stroke-width="1" opacity="0.3"/><path d="M73.3 57.3 L96.0 80.0" stroke="#141210" stroke-width="1" opacity="0.3"/><path d="M102.9 40.2 L111.2 71.2" stroke="#141210" stroke-width="1" opacity="0.3"/><path d="M137.1 40.2 L128.8 71.2" stroke="#141210" stroke-width="1" opacity="0.3"/><path d="M166.7 57.3 L144.0 80.0" stroke="#141210" stroke-width="1" opacity="0.3"/><path d="M183.8 86.9 L152.8 95.2" stroke="#141210" stroke-width="1" opacity="0.3"/><path d="M152.8 112.8 L87.2 95.2" stroke="#141210" stroke-width="1" opacity="0.25"/><circle cx="120" cy="104" r="28.5" fill="#C96F2B" opacity="0.4" filter="url(#g51)"/><circle cx="120" cy="104" r="15.0" fill="#C96F2B"/><circle cx="120" cy="104" r="6.3" fill="#141210"/><circle cx="84" cy="76" r="15.2" fill="#C96F2B" opacity="0.4" filter="url(#g51)"/><circle cx="84" cy="76" r="8.0" fill="#C96F2B"/><circle cx="84" cy="76" r="3.4" fill="#141210"/><circle cx="156" cy="76" r="15.2" fill="#C96F2B" opacity="0.4" filter="url(#g51)"/><circle cx="156" cy="76" r="8.0" fill="#C96F2B"/><circle cx="156" cy="76" r="3.4" fill="#141210"/><circle cx="78" cy="122" r="15.2" fill="#C96F2B" opacity="0.4" filter="url(#g51)"/><circle cx="78" cy="122" r="8.0" fill="#C96F2B"/><circle cx="78" cy="122" r="3.4" fill="#141210"/><circle cx="162" cy="122" r="15.2" fill="#C96F2B" opacity="0.4" filter="url(#g51)"/><circle cx="162" cy="122" r="8.0" fill="#C96F2B"/><circle cx="162" cy="122" r="3.4" fill="#141210"/><circle cx="120" cy="54" r="15.2" fill="#C96F2B" opacity="0.4" filter="url(#g51)"/><circle cx="120" cy="54" r="8.0" fill="#C96F2B"/><circle cx="120" cy="54" r="3.4" fill="#141210"/><circle cx="120" cy="150" r="15.2" fill="#C96F2B" opacity="0.4" filter="url(#g51)"/><circle cx="120" cy="150" r="8.0" fill="#C96F2B"/><circle cx="120" cy="150" r="3.4" fill="#141210"/><path d="M33.2 72.4 A92.4 92.4 0 0 1 206.8 72.4" fill="none" stroke="#C96F2B" stroke-width="2.2" opacity="0.6" stroke-linecap="round"/><path d="M4.3 47.6 A128.7 128.7 0 0 1 235.7 47.6" fill="none" stroke="#C96F2B" stroke-width="1.7000000000000002" opacity="0.44999999999999996" stroke-linecap="round"/><path d="M-19.9 16.6 A165.0 165.0 0 0 1 259.9 16.6" fill="none" stroke="#C96F2B" stroke-width="1.2000000000000002" opacity="0.3" stroke-linecap="round"/></svg>