<svg viewBox="0 0 240 240" xmlns="http://www.w3.org/2000/svg"><defs><filter id="ink53" x="-35%" y="-35%" width="170%" height="170%"><feTurbulence type="fractalNoise" baseFrequency="0.012 0.017" numOctaves="3" seed="53" result="w"/><feDisplacementMap in="SourceGraphic" in2="w" scale="15" xChannelSelector="R" yChannelSelector="G"/></filter><filter id="g53" x="-120%" y="-120%" width="340%" height="340%"><feGaussianBlur stdDeviation="5"/></filter></defs><ellipse cx="120" cy="210" rx="88" ry="8" fill="rgba(20,18,16,0.05)"/><g filter="url(#ink53)"><path d="M28 194 L28 152 C28 100 212 100 212 152 L212 194 L172 194 L172 154 C172 124 68 124 68 154 L68 194 Z" fill="#141210"/><rect x="70.0" y="96.0" width="100.0" height="18.0" rx="3" fill="#141210"/><circle cx="40.0" cy="150.0" r="3.0" fill="#141210"/><circle cx="200.0" cy="150.0" r="2.5" fill="#141210"/></g><circle cx="98" cy="105" r="15" fill="none" stroke="#C96F2B" stroke-width="2.4"/><circle cx="98" cy="105" r="4" fill="#C96F2B"/><circle cx="146" cy="105" r="15" fill="none" stroke="#C96F2B" stroke-width="2.4"/><circle cx="146" cy="105" r="4" fill="#C96F2B"/><path d="M80.0 118.0 Q120.0 127.0 160.0 118.0" fill="none" stroke="#C96F2B" stroke-width="3" stroke-linecap="round"/></svg>