<svg viewBox="0 0 240 240" xmlns="http://www.w3.org/2000/svg"><defs><filter id="ink52" x="-35%" y="-35%" width="170%" height="170%"><feTurbulence type="fractalNoise" baseFrequency="0.012 0.017" numOctaves="3" seed="52" result="w"/><feDisplacementMap in="SourceGraphic" in2="w" scale="15" xChannelSelector="R" yChannelSelector="G"/></filter><filter id="g52" x="-120%" y="-120%" width="340%" height="340%"><feGaussianBlur stdDeviation="5"/></filter></defs><ellipse cx="120" cy="210" rx="48" ry="8" fill="rgba(20,18,16,0.05)"/><g filter="url(#ink52)"><ellipse cx="122.0" cy="152.0" rx="44.0" ry="56.0" fill="#141210"/><path d="M110 108 C96 76 98 56 116 52 C126 50 132 58 130 70 C128 86 122 96 120 108 Z" fill="#141210"/><ellipse cx="118.0" cy="48.0" rx="30.0" ry="13.0" fill="#141210"/><circle cx="70.0" cy="150.0" r="3.0" fill="#141210"/><circle cx="172.0" cy="160.0" r="2.5" fill="#141210"/></g><ellipse cx="118" cy="48" rx="25.7" ry="10.8" fill="#C96F2B" opacity="0.35" filter="url(#g52)"/><ellipse cx="118" cy="48" rx="19.0" ry="8.0" fill="#C96F2B"/><ellipse cx="118" cy="48" rx="8.0" ry="3.4" fill="#141210"/><path d="M85.0 24.6 A36.4 36.4 0 0 1 151.0 24.6" fill="none" stroke="#C96F2B" stroke-width="2.2" opacity="0.6" stroke-linecap="round"/><path d="M74.5 13.9 A50.7 50.7 0 0 1 161.5 13.9" fill="none" stroke="#C96F2B" stroke-width="1.7000000000000002" opacity="0.44999999999999996" stroke-linecap="round"/><path d="M66.1 0.9 A65.0 65.0 0 0 1 169.9 0.9" fill="none" stroke="#C96F2B" stroke-width="1.2000000000000002" opacity="0.3" stroke-linecap="round"/><circle cx="122" cy="150" r="19.0" fill="#C96F2B" opacity="0.4" filter="url(#g52)"/><circle cx="122" cy="150" r="10.0" fill="#C96F2B"/><circle cx="122" cy="150" r="4.2" fill="#141210"/></svg>