<svg viewBox="0 0 240 240" xmlns="http://www.w3.org/2000/svg" fill="none"><ellipse cx="120" cy="210" rx="82" ry="8" fill="rgba(20,18,16,0.05)"/><path d="M64 188 C34 168 46 122 96 122 C150 122 156 168 122 186" fill="none" stroke="#141210" stroke-width="2" opacity="1.0" stroke-linecap="round" stroke-linejoin="round"/><path d="M80 176 C62 162 70 138 98 138 C128 138 132 164 116 174" fill="none" stroke="#141210" stroke-width="1.2" opacity="0.55" stroke-linecap="round" stroke-linejoin="round"/><path d="M150 150 C168 122 156 88 132 82" fill="none" stroke="#141210" stroke-width="2" opacity="1.0" stroke-linecap="round" stroke-linejoin="round"/><path d="M138 156 C150 140 146 118 132 108" fill="none" stroke="#141210" stroke-width="1.2" opacity="0.5" stroke-linecap="round" stroke-linejoin="round"/><path d="M132 82 C108 74 90 84 86 100" fill="none" stroke="#141210" stroke-width="2" opacity="1.0" stroke-linecap="round" stroke-linejoin="round"/><path d="M92 112 C100 124 120 126 134 118" fill="none" stroke="#141210" stroke-width="2" opacity="1.0" stroke-linecap="round" stroke-linejoin="round"/><circle cx="110.0" cy="104.0" r="8.0" fill="none" stroke="#141210" stroke-width="1.8" opacity="1.0"/><circle cx="110.0" cy="104.0" r="5.0" fill="none" stroke="#141210" stroke-width="1.1" opacity="1.0"/><circle cx="110.0" cy="104.0" r="2.7" fill="none" stroke="#141210" stroke-width="0.8" opacity="1.0"/><circle cx="110.0" cy="104.0" r="1.3" fill="#C96F2B"/><path d="M98.7 108.1 A12.0 12.0 0 0 1 105.9 92.7" fill="none" stroke="#C96F2B" stroke-width="1.6" opacity="0.55" stroke-linecap="round"/><path d="M94.5 107.9 A16.0 16.0 0 0 1 103.0 89.6" fill="none" stroke="#C96F2B" stroke-width="1.3" opacity="0.42000000000000004" stroke-linecap="round"/><path d="M90.2 106.8 A20.0 20.0 0 0 1 99.4 87.0" fill="none" stroke="#C96F2B" stroke-width="1.0" opacity="0.29000000000000004" stroke-linecap="round"/><path d="M158.0 120.0 L168.0 116.0" stroke="#141210" stroke-width="1" opacity="0.5" stroke-linecap="round"/><path d="M162.0 132.0 L173.0 129.0" stroke="#141210" stroke-width="1" opacity="0.5" stroke-linecap="round"/><path d="M160.0 144.0 L171.0 142.0" stroke="#141210" stroke-width="1" opacity="0.5" stroke-linecap="round"/><path d="M150.0 110.0 L160.0 104.0" stroke="#141210" stroke-width="1" opacity="0.5" stroke-linecap="round"/><rect x="75.0" y="150.0" width="50.0" height="10.0" rx="3" fill="none" stroke="#141210" stroke-width="1.6" opacity="1.0"/><rect x="75.0" y="148.2" width="14.5" height="11.8" rx="2" fill="none" stroke="#141210" stroke-width="1.2" opacity="1.0"/><rect x="77.0" y="149.2" width="10.5" height="2.0" rx="1" fill="none" stroke="#141210" stroke-width="0.7" opacity="1.0"/><circle cx="82.2" cy="156.0" r="4.3" fill="none" stroke="#141210" stroke-width="1.1" opacity="1.0"/><circle cx="82.2" cy="156.0" r="2.2" fill="none" stroke="#141210" stroke-width="0.8" opacity="1.0"/><circle cx="82.2" cy="156.0" r="1.3" fill="#141210"/><path d="M86.5 152.8 L86.5 158.5" stroke="#141210" stroke-width="0.8" opacity="1.0" stroke-linecap="round"/><rect x="110.5" y="148.2" width="14.5" height="11.8" rx="2" fill="none" stroke="#141210" stroke-width="1.2" opacity="1.0"/><rect x="112.5" y="149.2" width="10.5" height="2.0" rx="1" fill="none" stroke="#141210" stroke-width="0.7" opacity="1.0"/><circle cx="117.8" cy="156.0" r="4.3" fill="none" stroke="#141210" stroke-width="1.1" opacity="1.0"/><circle cx="117.8" cy="156.0" r="2.2" fill="none" stroke="#141210" stroke-width="0.8" opacity="1.0"/><circle cx="117.8" cy="156.0" r="1.3" fill="#141210"/><path d="M122.0 152.8 L122.0 158.5" stroke="#141210" stroke-width="0.8" opacity="1.0" stroke-linecap="round"/><rect x="94.0" y="148.2" width="12.0" height="11.8" rx="2" fill="none" stroke="#141210" stroke-width="1.2" opacity="1.0"/><path d="M97.0 151.6 L97.0 156.0" stroke="#141210" stroke-width="0.8" opacity="1.0" stroke-linecap="round"/><rect x="95.4" y="153.0" width="3.2" height="3.2" rx="0.6" fill="none" stroke="#141210" stroke-width="0.7" opacity="1.0"/><path d="M98.9 151.6 L98.9 156.0" stroke="#141210" stroke-width="0.8" opacity="1.0" stroke-linecap="round"/><rect x="97.3" y="153.0" width="3.2" height="3.2" rx="0.6" fill="none" stroke="#141210" stroke-width="0.7" opacity="1.0"/><path d="M101.1 151.6 L101.1 156.0" stroke="#141210" stroke-width="0.8" opacity="1.0" stroke-linecap="round"/><rect x="99.5" y="153.0" width="3.2" height="3.2" rx="0.6" fill="none" stroke="#141210" stroke-width="0.7" opacity="1.0"/><path d="M103.0 151.6 L103.0 156.0" stroke="#141210" stroke-width="0.8" opacity="1.0" stroke-linecap="round"/><rect x="101.4" y="153.0" width="3.2" height="3.2" rx="0.6" fill="none" stroke="#141210" stroke-width="0.7" opacity="1.0"/><path d="M96.2 158.0 L103.8 158.0" stroke="#141210" stroke-width="0.9" opacity="1.0" stroke-linecap="round"/><rect x="97.8" y="155.6" width="4.4" height="4.8" rx="1" fill="#C96F2B"/><path d="M72.0 167.0 Q100.0 178.0 128.0 167.0" fill="none" stroke="#C96F2B" stroke-width="2.6" opacity="1.0" stroke-linecap="round" stroke-linejoin="round"/></svg>