<svg viewBox="0 0 240 240" xmlns="http://www.w3.org/2000/svg"><defs><filter id="ink33" x="-35%" y="-35%" width="170%" height="170%"><feTurbulence type="fractalNoise" baseFrequency="0.012 0.017" numOctaves="3" seed="33" result="w"/><feDisplacementMap in="SourceGraphic" in2="w" scale="17" xChannelSelector="R" yChannelSelector="G"/></filter><filter id="g33" x="-120%" y="-120%" width="340%" height="340%"><feGaussianBlur stdDeviation="5"/></filter></defs><ellipse cx="120" cy="210" rx="56" ry="8" fill="rgba(20,18,16,0.05)"/><g filter="url(#ink33)"><circle cx="120.0" cy="114.0" r="60.0" fill="#141210"/><ellipse cx="120.0" cy="184.0" rx="34.0" ry="9.0" fill="#141210"/><circle cx="64.0" cy="100.0" r="3.0" fill="#141210"/><circle cx="176.0" cy="100.0" r="2.5" fill="#141210"/></g><circle cx="120" cy="114" r="45.6" fill="#C96F2B" opacity="0.4" filter="url(#g33)"/><circle cx="120" cy="114" r="24.0" fill="#C96F2B"/><circle cx="120" cy="114" r="10.1" fill="#141210"/><path d="M88.4 102.5 A33.6 33.6 0 0 1 151.6 102.5" fill="none" stroke="#C96F2B" stroke-width="2.2" opacity="0.6" stroke-linecap="round"/><path d="M77.9 93.5 A46.8 46.8 0 0 1 162.1 93.5" fill="none" stroke="#C96F2B" stroke-width="1.7000000000000002" opacity="0.44999999999999996" stroke-linecap="round"/><path d="M69.1 82.2 A60.0 60.0 0 0 1 170.9 82.2" fill="none" stroke="#C96F2B" stroke-width="1.2000000000000002" opacity="0.3" stroke-linecap="round"/></svg>