<svg viewBox="0 0 240 240" xmlns="http://www.w3.org/2000/svg" fill="none"><ellipse cx="120" cy="210" rx="82" ry="8" fill="rgba(20,18,16,0.05)"/><path d="M62 110 C62 66 178 66 178 110 C178 134 168 148 150 152 L150 170 C150 178 140 184 120 184 C100 184 90 178 90 170 L90 152 C72 148 62 134 62 110 Z" fill="none" stroke="#141210" stroke-width="2" opacity="1.0" stroke-linecap="round" stroke-linejoin="round"/><circle cx="99.0" cy="118.0" r="15.0" fill="none" stroke="#141210" stroke-width="1.8" opacity="1.0"/><circle cx="99.0" cy="118.0" r="9.3" fill="none" stroke="#141210" stroke-width="1.1" opacity="1.0"/><circle cx="99.0" cy="118.0" r="5.1" fill="none" stroke="#141210" stroke-width="0.8" opacity="1.0"/><circle cx="99.0" cy="118.0" r="2.4" fill="#C96F2B"/><path d="M79.5 129.2 A22.5 22.5 0 0 1 91.3 96.9" fill="none" stroke="#C96F2B" stroke-width="1.6" opacity="0.55" stroke-linecap="round"/><path d="M71.6 130.2 A30.0 30.0 0 0 1 85.8 91.0" fill="none" stroke="#C96F2B" stroke-width="1.3" opacity="0.42000000000000004" stroke-linecap="round"/><path d="M63.3 129.6 A37.5 37.5 0 0 1 79.1 86.2" fill="none" stroke="#C96F2B" stroke-width="1.0" opacity="0.29000000000000004" stroke-linecap="round"/><circle cx="141.0" cy="118.0" r="15.0" fill="none" stroke="#141210" stroke-width="1.8" opacity="1.0"/><circle cx="141.0" cy="118.0" r="9.3" fill="none" stroke="#141210" stroke-width="1.1" opacity="1.0"/><circle cx="141.0" cy="118.0" r="5.1" fill="none" stroke="#141210" stroke-width="0.8" opacity="1.0"/><circle cx="141.0" cy="118.0" r="2.4" fill="#C96F2B"/><path d="M148.7 96.9 A22.5 22.5 0 0 1 160.5 129.2" fill="none" stroke="#C96F2B" stroke-width="1.6" opacity="0.55" stroke-linecap="round"/><path d="M154.2 91.0 A30.0 30.0 0 0 1 168.4 130.2" fill="none" stroke="#C96F2B" stroke-width="1.3" opacity="0.42000000000000004" stroke-linecap="round"/><path d="M160.9 86.2 A37.5 37.5 0 0 1 176.7 129.6" fill="none" stroke="#C96F2B" stroke-width="1.0" opacity="0.29000000000000004" stroke-linecap="round"/><path d="M120 132 L113 150 L127 150 Z" fill="none" stroke="#141210" stroke-width="1.4" opacity="1.0" stroke-linecap="round" stroke-linejoin="round"/><path d="M104.0 170.0 L104.0 182.0" stroke="#141210" stroke-width="1" opacity="1.0" stroke-linecap="round"/><path d="M112.0 170.0 L112.0 182.0" stroke="#141210" stroke-width="1" opacity="1.0" stroke-linecap="round"/><path d="M120.0 170.0 L120.0 182.0" stroke="#141210" stroke-width="1" opacity="1.0" stroke-linecap="round"/><path d="M128.0 170.0 L128.0 182.0" stroke="#141210" stroke-width="1" opacity="1.0" stroke-linecap="round"/><path d="M136.0 170.0 L136.0 182.0" stroke="#141210" stroke-width="1" opacity="1.0" stroke-linecap="round"/><rect x="91.0" y="58.0" width="58.0" height="11.6" rx="3" fill="none" stroke="#141210" stroke-width="1.6" opacity="1.0"/><rect x="91.0" y="56.0" width="16.8" height="13.6" rx="2" fill="none" stroke="#141210" stroke-width="1.2" opacity="1.0"/><rect x="93.0" y="57.1" width="12.8" height="2.3" rx="1" fill="none" stroke="#141210" stroke-width="0.7" opacity="1.0"/><circle cx="99.4" cy="65.0" r="5.0" fill="none" stroke="#141210" stroke-width="1.1" opacity="1.0"/><circle cx="99.4" cy="65.0" r="2.5" fill="none" stroke="#141210" stroke-width="0.8" opacity="1.0"/><circle cx="99.4" cy="65.0" r="1.3" fill="#141210"/><path d="M104.8 61.2 L104.8 67.9" stroke="#141210" stroke-width="0.8" opacity="1.0" stroke-linecap="round"/><rect x="132.2" y="56.0" width="16.8" height="13.6" rx="2" fill="none" stroke="#141210" stroke-width="1.2" opacity="1.0"/><rect x="134.2" y="57.1" width="12.8" height="2.3" rx="1" fill="none" stroke="#141210" stroke-width="0.7" opacity="1.0"/><circle cx="140.6" cy="65.0" r="5.0" fill="none" stroke="#141210" stroke-width="1.1" opacity="1.0"/><circle cx="140.6" cy="65.0" r="2.5" fill="none" stroke="#141210" stroke-width="0.8" opacity="1.0"/><circle cx="140.6" cy="65.0" r="1.3" fill="#141210"/><path d="M146.0 61.2 L146.0 67.9" stroke="#141210" stroke-width="0.8" opacity="1.0" stroke-linecap="round"/><rect x="113.0" y="56.0" width="13.9" height="13.6" rx="2" fill="none" stroke="#141210" stroke-width="1.2" opacity="1.0"/><path d="M116.5 59.9 L116.5 65.0" stroke="#141210" stroke-width="0.8" opacity="1.0" stroke-linecap="round"/><rect x="114.9" y="61.5" width="3.2" height="3.2" rx="0.6" fill="none" stroke="#141210" stroke-width="0.7" opacity="1.0"/><path d="M118.8 59.9 L118.8 65.0" stroke="#141210" stroke-width="0.8" opacity="1.0" stroke-linecap="round"/><rect x="117.2" y="61.5" width="3.2" height="3.2" rx="0.6" fill="none" stroke="#141210" stroke-width="0.7" opacity="1.0"/><path d="M121.2 59.9 L121.2 65.0" stroke="#141210" stroke-width="0.8" opacity="1.0" stroke-linecap="round"/><rect x="119.6" y="61.5" width="3.2" height="3.2" rx="0.6" fill="none" stroke="#141210" stroke-width="0.7" opacity="1.0"/><path d="M123.5 59.9 L123.5 65.0" stroke="#141210" stroke-width="0.8" opacity="1.0" stroke-linecap="round"/><rect x="121.9" y="61.5" width="3.2" height="3.2" rx="0.6" fill="none" stroke="#141210" stroke-width="0.7" opacity="1.0"/><path d="M115.5 67.3 L124.5 67.3" stroke="#141210" stroke-width="0.9" opacity="1.0" stroke-linecap="round"/><rect x="117.8" y="64.9" width="4.4" height="4.8" rx="1" fill="#C96F2B"/><path d="M87.5 76.6 Q120.0 87.6 152.5 76.6" fill="none" stroke="#C96F2B" stroke-width="2.6" opacity="1.0" stroke-linecap="round" stroke-linejoin="round"/></svg>