<svg viewBox="0 0 240 240" xmlns="http://www.w3.org/2000/svg"><defs><filter id="ink32" x="-35%" y="-35%" width="170%" height="170%"><feTurbulence type="fractalNoise" baseFrequency="0.012 0.017" numOctaves="3" seed="32" result="w"/><feDisplacementMap in="SourceGraphic" in2="w" scale="17" xChannelSelector="R" yChannelSelector="G"/></filter><filter id="g32" x="-120%" y="-120%" width="340%" height="340%"><feGaussianBlur stdDeviation="5"/></filter></defs><ellipse cx="120" cy="210" rx="62" ry="8" fill="rgba(20,18,16,0.05)"/><g filter="url(#ink32)"><path d="M56 62 C58 58 182 58 184 62 C170 122 138 142 128 156 L112 156 C102 142 70 122 56 62 Z" fill="#141210"/><rect x="112.0" y="150.0" width="16.0" height="46.0" rx="2" fill="#141210"/><ellipse cx="120.0" cy="198.0" rx="28.0" ry="7.0" fill="#141210"/><circle cx="70.0" cy="80.0" r="3.0" fill="#141210"/><circle cx="170.0" cy="80.0" r="2.5" fill="#141210"/></g><circle cx="120" cy="150" r="17.1" fill="#C96F2B" opacity="0.4" filter="url(#g32)"/><circle cx="120" cy="150" r="9.0" fill="#C96F2B"/><circle cx="120" cy="150" r="3.8" fill="#141210"/><path d="M81.9 38.3 A42.0 42.0 0 0 1 158.1 38.3" fill="none" stroke="#C96F2B" stroke-width="2.2" opacity="0.6" stroke-linecap="round"/><path d="M69.9 25.9 A58.5 58.5 0 0 1 170.1 25.9" fill="none" stroke="#C96F2B" stroke-width="1.7000000000000002" opacity="0.44999999999999996" stroke-linecap="round"/><path d="M60.1 10.9 A75.0 75.0 0 0 1 179.9 10.9" fill="none" stroke="#C96F2B" stroke-width="1.2000000000000002" opacity="0.3" stroke-linecap="round"/></svg>