<svg viewBox="0 0 240 240" xmlns="http://www.w3.org/2000/svg"><defs><filter id="ink55" x="-35%" y="-35%" width="170%" height="170%"><feTurbulence type="fractalNoise" baseFrequency="0.012 0.017" numOctaves="3" seed="55" result="w"/><feDisplacementMap in="SourceGraphic" in2="w" scale="15" xChannelSelector="R" yChannelSelector="G"/></filter><filter id="g55" x="-120%" y="-120%" width="340%" height="340%"><feGaussianBlur stdDeviation="5"/></filter></defs><ellipse cx="120" cy="210" rx="86" ry="8" fill="rgba(20,18,16,0.05)"/><g filter="url(#ink55)"><rect x="44.0" y="118.0" width="152.0" height="58.0" rx="29" fill="#141210"/><path d="M60 128 A34 34 0 0 1 128 128 Z" fill="#141210"/><path d="M112 128 A34 34 0 0 1 180 128 Z" fill="#141210"/><path d="M86.0 172.0 L62.0 210.0" stroke="#141210" stroke-width="7" stroke-linecap="round"/><path d="M154.0 172.0 L178.0 210.0" stroke="#141210" stroke-width="7" stroke-linecap="round"/><circle cx="40.0" cy="150.0" r="3.0" fill="#141210"/><circle cx="200.0" cy="150.0" r="2.5" fill="#141210"/></g><circle cx="94" cy="118" r="22.8" fill="#C96F2B" opacity="0.4" filter="url(#g55)"/><circle cx="94" cy="118" r="12.0" fill="#C96F2B"/><circle cx="94" cy="118" r="5.0" fill="#141210"/><circle cx="146" cy="118" r="22.8" fill="#C96F2B" opacity="0.4" filter="url(#g55)"/><circle cx="146" cy="118" r="12.0" fill="#C96F2B"/><circle cx="146" cy="118" r="5.0" fill="#141210"/><path d="M92 158 L148 158" stroke="#C96F2B" stroke-width="2.4" stroke-linecap="round"/></svg>