<svg viewBox="0 0 240 240" xmlns="http://www.w3.org/2000/svg"><defs><filter id="ink56" x="-35%" y="-35%" width="170%" height="170%"><feTurbulence type="fractalNoise" baseFrequency="0.012 0.017" numOctaves="3" seed="56" result="w"/><feDisplacementMap in="SourceGraphic" in2="w" scale="15" xChannelSelector="R" yChannelSelector="G"/></filter><filter id="g56" x="-120%" y="-120%" width="340%" height="340%"><feGaussianBlur stdDeviation="5"/></filter></defs><ellipse cx="120" cy="210" rx="62" ry="8" fill="rgba(20,18,16,0.05)"/><g filter="url(#ink56)"><rect x="64.0" y="98.0" width="112.0" height="102.0" rx="6" fill="#141210"/><rect x="100.0" y="200.0" width="40.0" height="8.0" rx="2" fill="#141210"/><rect x="112.0" y="178.0" width="16.0" height="24.0" rx="0" fill="#141210"/><path d="M148 100 C150 82 162 66 182 62 C191 60 195 67 193 75 C188 93 168 100 156 104 Z" fill="#141210"/><ellipse cx="184.0" cy="60.0" rx="25.0" ry="12.0" fill="#141210"/><path d="M106 100 C102 84 108 74 120 72 C127 71 129 77 126 84 C122 93 116 96 116 104 Z" fill="#141210"/><ellipse cx="112.0" cy="70.0" rx="16.0" ry="8.0" fill="#141210"/><circle cx="56.0" cy="120.0" r="3.0" fill="#141210"/><circle cx="184.0" cy="150.0" r="2.5" fill="#141210"/><circle cx="120.0" cy="208.0" r="2.0" fill="#141210"/></g><circle cx="120" cy="142" r="57.0" fill="#C96F2B" opacity="0.4" filter="url(#g56)"/><circle cx="120" cy="142" r="30.0" fill="#C96F2B"/><circle cx="120" cy="142" r="12.6" fill="#141210"/><path d="M83.6 121.0 A42.0 42.0 0 0 1 156.4 121.0" fill="none" stroke="#C96F2B" stroke-width="2.2" opacity="0.6" stroke-linecap="round"/><path d="M72.7 107.6 A58.5 58.5 0 0 1 167.3 107.6" fill="none" stroke="#C96F2B" stroke-width="1.7000000000000002" opacity="0.44999999999999996" stroke-linecap="round"/><path d="M64.3 91.8 A75.0 75.0 0 0 1 175.7 91.8" fill="none" stroke="#C96F2B" stroke-width="1.2000000000000002" opacity="0.3" stroke-linecap="round"/><circle cx="184" cy="60" r="6.5" fill="#C96F2B"/><circle cx="112" cy="70" r="4" fill="#C96F2B"/><rect x="146" y="168" width="22" height="9" fill="none" stroke="#C96F2B" stroke-width="1.6"/></svg>